<svg aria-hidden="true" style="position: absolute; width: 0; height: 0; overflow: hidden;" version="1.1" xmlns="http://www.w3.org/2000/svg" xmlns:xlink="http://www.w3.org/1999/xlink">
<defs>
<symbol id="icon-adobe" viewBox="0 0 32 32">
<path fill="#f00" style="fill: var(--color1, #f00)" d="M20.133 2.667h11.867v26.667zM11.867 2.667h-11.867v26.667zM16 12.533l7.467 16.8h-5.067l-2.133-5.333h-5.467z"></path>
</symbol>
<symbol id="icon-adobeillustrator" viewBox="0 0 32 32">
<path fill="#ff7c00" style="fill: var(--color2, #ff7c00)" d="M0 0.4v31.2h32v-31.2zM1.333 1.733h29.333v28.533h-29.333zM11.1 18.067l-1.056 3.997c-0.023 0.111-0.067 0.136-0.197 0.136h-1.957c-0.133 0-0.153-0.044-0.133-0.197l3.787-13.26c0.067-0.24 0.109-0.451 0.131-1.111 0-0.088 0.044-0.133 0.111-0.133h2.795c0.088 0 0.133 0.024 0.155 0.133l4.247 14.392c0.023 0.111 0 0.176-0.111 0.176h-2.2c-0.111 0-0.176-0.027-0.197-0.115l-1.1-4.020zM14.817 15.9c-0.373-1.475-1.253-4.704-1.584-6.267h-0.023c-0.285 1.56-0.989 4.2-1.54 6.267zM20.817 8.489c0-0.857 0.593-1.364 1.364-1.364 0.813 0 1.364 0.549 1.364 1.364 0 0.88-0.573 1.364-1.387 1.364-0.8 0-1.347-0.484-1.341-1.364zM20.967 11.521c0-0.107 0.044-0.147 0.155-0.147h2.093c0.117 0 0.16 0.044 0.16 0.155v10.527c0 0.111-0.021 0.155-0.153 0.155h-2.067c-0.133 0-0.177-0.067-0.177-0.173z"></path>
</symbol>
<symbol id="icon-adobephotoshop" viewBox="0 0 32 32">
<path fill="#00c8ff" style="fill: var(--color3, #00c8ff)" d="M0 0.4v31.2h32v-31.2zM1.333 1.733h29.333v28.533h-29.333zM7.733 7.707c0-0.089 0.187-0.155 0.299-0.155 0.859-0.044 2.117-0.067 3.437-0.067 3.696 0 5.133 2.027 5.133 4.621 0 3.387-2.456 4.84-5.469 4.84-0.507 0-0.68-0.023-1.033-0.023v5.123c0 0.111-0.044 0.155-0.153 0.155h-2.059c-0.111 0-0.153-0.040-0.153-0.151zM10.1 14.789c0.307 0.021 0.549 0.021 1.080 0.021 1.56 0 3.027-0.549 3.027-2.661 0-1.693-1.048-2.552-2.829-2.552-0.528 0-1.033 0.021-1.276 0.044zM21.576 13.205c-1.056 0-1.408 0.528-1.408 0.968 0 0.484 0.24 0.813 1.649 1.54 2.091 1.013 2.749 1.98 2.749 3.409 0 2.133-1.627 3.28-3.827 3.28-1.168 0-2.16-0.244-2.733-0.573-0.087-0.044-0.107-0.109-0.107-0.22v-1.956c0-0.133 0.064-0.177 0.152-0.112 0.832 0.551 1.803 0.792 2.683 0.792 1.056 0 1.496-0.44 1.496-1.035 0-0.484-0.307-0.903-1.649-1.607-1.893-0.907-2.685-1.827-2.685-3.369 0-1.716 1.341-3.147 3.673-3.147 1.147 0 1.952 0.176 2.392 0.373 0.109 0.067 0.133 0.176 0.133 0.264v1.827c0 0.111-0.067 0.177-0.2 0.133-0.592-0.352-1.467-0.573-2.319-0.568z"></path>
</symbol>
<symbol id="icon-adobexd" viewBox="0 0 32 32">
<path fill="#ff2bc2" style="fill: var(--color4, #ff2bc2)" d="M26.333 0.4h-20.667c-3.133 0-5.667 2.533-5.667 5.667v19.867c0 3.133 2.533 5.667 5.667 5.667h20.667c3.133 0 5.667-2.533 5.667-5.667v-19.867c0-3.133-2.533-5.667-5.667-5.667zM30.653 25.413c0 0.007 0 0.015 0 0.023 0 2.667-2.16 4.828-4.826 4.831h-19.654c-2.667 0-4.84-2.173-4.84-4.84v-18.853c0-2.667 2.173-4.84 4.84-4.84h19.64c2.673 0 4.84 2.167 4.84 4.84v0zM12.653 15l3.733 7.173c0.067 0.107 0.027 0.213-0.080 0.213h-2.32c-0.147 0-0.213-0.040-0.28-0.173-0.853-1.76-1.72-3.52-2.613-5.413h-0.027c-0.8 1.787-1.68 3.667-2.533 5.427-0.067 0.107-0.133 0.147-0.24 0.147h-2.2c-0.133 0-0.147-0.107-0.080-0.187l3.653-6.96-3.533-7.040c-0.080-0.107 0-0.187 0.080-0.187h2.293c0.133 0 0.187 0.027 0.24 0.147 0.84 1.76 1.693 3.573 2.493 5.347h0.027c0.773-1.76 1.627-3.587 2.453-5.333 0.067-0.107 0.107-0.173 0.24-0.173h2.147c0.107 0 0.147 0.080 0.080 0.187zM17.040 17.173c0-3.107 2.067-5.533 5.347-5.533 0.28 0 0.427 0 0.693 0.027v-3.533c0-0.080 0.067-0.133 0.133-0.133h2.107c0.107 0 0.133 0.040 0.133 0.107v12.24c0 0.36 0 0.813 0.067 1.307 0 0.080-0.027 0.107-0.107 0.147-1.12 0.533-2.293 0.773-3.413 0.773-2.893 0.013-4.96-1.773-4.96-5.4zM23.080 13.76c-0.187-0.080-0.453-0.133-0.773-0.133-1.68 0-2.853 1.293-2.853 3.44 0 2.453 1.2 3.44 2.707 3.44 0.32 0 0.667-0.040 0.92-0.147z"></path>
</symbol>
<symbol id="icon-atom" viewBox="0 0 32 32">
<path fill="#66595c" style="fill: var(--color5, #66595c)" d="M27.328 12.035c-2.911-1.24-6.821-2.040-11-2.26-0.667-0.040-1.316-0.053-1.933-0.053 3.091-3.773 6.403-6.307 8.583-6.387 0.429-0.017 0.793 0.073 1.084 0.261 0.941 0.611 1.207 2.357 0.727 4.787-0.053 0.333 0.16 0.657 0.48 0.72 0.333 0.067 0.653-0.147 0.72-0.48 0.6-3.040 0.16-5.128-1.253-6.051-0.507-0.331-1.12-0.487-1.8-0.461-2.733 0.103-6.587 3.067-10.12 7.627-1.539 0.047-2.987 0.173-4.309 0.383-0.861-3.863-0.52-6.636 0.792-7.303 0.184-0.097 0.38-0.147 0.609-0.165 0.929-0.072 2.213 0.527 3.613 1.693 0.259 0.213 0.648 0.187 0.861-0.080 0.217-0.26 0.179-0.64-0.080-0.86-1.68-1.392-3.229-2.072-4.496-1.979-0.381 0.033-0.741 0.131-1.071 0.293-1.587 0.809-2.227 3.103-1.827 6.451 0.093 0.693 0.213 1.416 0.387 2.16-4.375 0.875-7.161 2.627-7.281 4.832-0.080 1.56 1.153 3.045 3.573 4.296 0.299 0.153 0.669 0.040 0.827-0.267 0.152-0.299 0.040-0.667-0.267-0.821-1.933-0.995-2.973-2.117-2.911-3.144 0.067-1.44 2.363-2.92 6.347-3.707 0.36 1.325 0.827 2.709 1.4 4.12-1.357 2.517-2.341 4.996-2.849 7.2-0.747 3.287-0.347 5.627 1.147 6.597 0.48 0.312 1.040 0.467 1.663 0.467 1.247 0 2.756-0.613 4.463-1.829 0.28-0.2 0.341-0.58 0.147-0.853-0.196-0.275-0.577-0.341-0.853-0.141-2.059 1.471-3.792 1.963-4.749 1.337-1.013-0.66-1.235-2.591-0.613-5.301 0.427-1.848 1.209-3.907 2.277-6.027 0.267 0.584 0.547 1.168 0.84 1.751 1.9 3.728 4.227 6.969 6.547 9.127 1.848 1.72 3.565 2.617 4.98 2.617 0.467 0 0.907-0.1 1.301-0.297 1.527-0.78 2.187-2.947 1.864-6.1-0.299-2.951-1.413-6.547-3.139-10.133-0.147-0.303-0.512-0.431-0.813-0.288-0.307 0.147-0.44 0.513-0.293 0.816 3.587 7.469 3.84 13.587 1.827 14.613-2.12 1.084-7.232-3.14-11.187-10.907-0.453-0.873-0.849-1.733-1.2-2.573 0.453-0.811 0.933-1.627 1.46-2.44 0.527-0.805 1.075-1.584 1.632-2.327h0.525c0.72 0 1.501 0.013 2.312 0.064 8.707 0.457 14.633 3.413 14.512 5.779-0.053 1.020-1.232 2.051-3.233 2.827-0.312 0.128-0.469 0.48-0.347 0.795 0.093 0.24 0.32 0.389 0.568 0.389 0.077 0 0.152-0.013 0.223-0.040 2.54-0.987 3.933-2.341 4.013-3.907 0.093-1.773-1.56-3.48-4.667-4.8zM10.773 12.6c-0.36 0.553-0.693 1.103-1.019 1.659-0.389-1.024-0.709-2.013-0.964-2.953 0.951-0.147 1.98-0.253 3.080-0.32-0.373 0.52-0.739 1.059-1.093 1.613zM16.007 14.167c-1.013 0-1.833 0.821-1.833 1.833s0.821 1.833 1.833 1.833v0c1.013 0 1.833-0.821 1.833-1.833s-0.821-1.833-1.833-1.833v0z"></path>
</symbol>
<symbol id="icon-beatsbydre" viewBox="0 0 32 32">
<path fill="#e01f3d" style="fill: var(--color6, #e01f3d)" d="M16.013 0c-1.714 0-3.365 0.27-4.913 0.768l0.113-0.032v8.862c1.32-0.999 2.99-1.6 4.799-1.6 4.418 0 8 3.582 8 8s-3.582 8-8 8c-4.418 0-8-3.581-8-7.999v-13.865c-4.824 2.816-8.014 7.968-8.014 13.865 0 8.837 7.163 16 16 16s16-7.163 16-16c0-8.832-7.155-15.992-15.985-16h-0.001zM16.214 11.203c-0.060-0.003-0.13-0.004-0.2-0.004-2.651 0-4.8 2.149-4.8 4.8 0 0 0 0.001 0 0.001v-0c0 2.651 2.149 4.799 4.799 4.799h0c0.005 0 0.010 0 0.015 0 2.651 0 4.8-2.149 4.8-4.8 0-2.586-2.045-4.694-4.605-4.796l-0.009-0z"></path>
</symbol>
<symbol id="icon-email" viewBox="0 0 32 32">
<path d="M5.315 9.274l7.735 6.726-7.737 6.728c-0.194-0.184-0.313-0.445-0.313-0.735v-11.986c0-0.289 0.121-0.549 0.315-0.733zM27.687 9.272c0.194 0.184 0.313 0.445 0.313 0.735v11.986c0 0.289-0.121 0.549-0.315 0.733l-7.735-6.726 7.737-6.728zM19.202 16.651l7.298 6.349h-20l7.298-6.349 2.702 2.349 2.702-2.349zM6.004 8c-1.107 0-2.004 0.895-2.004 1.994v12.012c0 1.101 0.89 1.994 2.004 1.994h20.993c1.107 0 2.004-0.895 2.004-1.994v-12.012c0-1.101-0.89-1.994-2.004-1.994h-20.993zM16.5 17.7l-10-8.7h20l-10 8.7z"></path>
</symbol>
<symbol id="icon-facebook" viewBox="0 0 32 32">
<path fill="#3b5998" d="M32 16c0-8.8-7.2-16-16-16s-16 7.2-16 16c0 8 5.9 14.6 13.5 15.8v-11.2h-4.1v-4.6h4.1v-3.5c0-4 2.4-6.2 6-6.2 1.8 0 3.6 0.3 3.6 0.3v3.9h-2c-2 0-2.6 1.2-2.6 2.5v3h4.4l-0.7 4.6h-3.7v11.2c7.6-1.2 13.5-7.8 13.5-15.8z"></path>
</symbol>
<symbol id="icon-google" viewBox="0 0 32 32">
<path fill="#4285f4" d="M16.3 13.7v5.5h9.1c-0.4 2.4-2.7 6.9-9.1 6.9-5.5 0-9.9-4.5-9.9-10.1s4.5-10.1 9.9-10.1c3.1 0 5.2 1.3 6.4 2.5l4.3-4.2c-2.8-2.6-6.4-4.2-10.7-4.2-8.8 0-16 7.2-16 16s7.2 16 16 16c9.2 0 15.4-6.5 15.4-15.6 0-1.1-0.1-1.9-0.3-2.7z"></path>
<symbol id="icon-appleinc" viewBox="0 0 32 32">
<path fill="#555555" d="M24.7 17c0-4.1 3.3-6 3.5-6.1-1.9-2.8-4.8-3.1-5.9-3.2-2.5-0.3-4.9 1.5-6.1 1.5-1.3 0-3.2-1.4-5.3-1.4-2.7 0-5.2 1.6-6.6 4-2.8 4.9-0.7 12.2 2 16.1 1.3 1.9 2.9 4.1 5.1 4 2-0.1 2.8-1.3 5.2-1.3s3.1 1.3 5.3 1.3c2.2 0 3.6-2 4.9-3.9 1.5-2.3 2.2-4.4 2.2-4.6 0 0-4.3-1.6-4.3-6.5zM20.7 5.1c1.1-1.4 1.9-3.2 1.7-5.1-1.6 0.1-3.6 1.1-4.7 2.4-1 1.2-1.9 3.1-1.7 5 1.8 0.1 3.6-0.9 4.7-2.3z"></path>
</symbol>
<symbol id="icon-globe" viewBox="0 0 32 32">
<path d="M16.951 11c-0.214-2.69-1.102-5.353-2.674-7.71 1.57 0.409 2.973 1.232 4.087 2.346 1.408 1.408 2.351 3.278 2.581 5.364zM14.279 20.709c1.483-2.226 2.437-4.853 2.669-7.709h3.997c-0.23 2.086-1.173 3.956-2.581 5.364-1.113 1.113-2.516 1.936-4.085 2.345zM7.049 13c0.214 2.69 1.102 5.353 2.674 7.71-1.57-0.409-2.973-1.232-4.087-2.346-1.408-1.408-2.351-3.278-2.581-5.364zM9.721 3.291c-1.482 2.226-2.436 4.853-2.669 7.709h-3.997c0.23-2.086 1.173-3.956 2.581-5.364 1.114-1.113 2.516-1.936 4.085-2.345zM12.004 1c0 0 0 0 0 0-3.044 0.001-5.794 1.233-7.782 3.222-1.99 1.989-3.222 4.741-3.222 7.778s1.232 5.789 3.222 7.778c1.988 1.989 4.738 3.221 7.774 3.222 0 0 0 0 0 0 3.044-0.001 5.793-1.233 7.782-3.222 1.99-1.989 3.222-4.741 3.222-7.778s-1.232-5.789-3.222-7.778c-1.988-1.989-4.738-3.221-7.774-3.222zM14.946 13c-0.252 2.788-1.316 5.36-2.945 7.451-1.729-2.221-2.706-4.818-2.945-7.451zM11.999 3.549c1.729 2.221 2.706 4.818 2.945 7.451h-5.89c0.252-2.788 1.316-5.36 2.945-7.451z"></path>
</symbol>
<symbol id="icon-airbnb" viewBox="0 0 32 32">
<path fill="#ff5a5f" d="M15.997 24.356c-1.803-2.261-2.863-4.243-3.216-5.94-0.351-1.368-0.212-2.463 0.388-3.285 0.636-0.947 1.583-1.407 2.827-1.407s2.189 0.46 2.825 1.416c0.595 0.813 0.744 1.909 0.381 3.285-0.388 1.731-1.447 3.712-3.205 5.931zM28.793 25.876c-0.247 1.66-1.379 3.037-2.933 3.709-3.001 1.307-5.973-0.777-8.517-3.604 4.207-5.267 4.984-9.367 3.179-12.019-1.060-1.52-2.577-2.26-4.524-2.26-3.924 0-6.081 3.32-5.233 7.173 0.493 2.085 1.801 4.456 3.887 7.107-1.307 1.445-2.545 2.473-3.64 3.109-0.848 0.459-1.66 0.743-2.437 0.811-3.569 0.532-6.368-2.931-5.097-6.503 0.176-0.46 0.527-1.307 1.127-2.615l0.033-0.071c1.951-4.235 4.32-9.048 7.043-14.387l0.071-0.176 0.773-1.487c0.6-1.096 0.847-1.587 1.801-2.191 0.46-0.279 1.025-0.419 1.66-0.419 1.272 0 2.263 0.743 2.687 1.341 0.211 0.319 0.46 0.743 0.776 1.271l0.744 1.451 0.107 0.212c2.72 5.336 5.092 10.14 7.035 14.385l0.035 0.033 0.711 1.627 0.424 1.019c0.324 0.816 0.392 1.628 0.292 2.481zM30.419 22.691c-0.248-0.777-0.672-1.695-1.2-2.791v-0.040c-2.516-5.34-4.853-10.14-7.072-14.453l-0.148-0.216c-1.581-3.243-2.713-5.191-6.001-5.191-3.251 0-4.632 2.259-6.044 5.196l-0.108 0.213c-2.224 4.312-4.56 9.119-7.068 14.456v0.071l-0.744 1.625c-0.28 0.672-0.423 1.024-0.46 1.129-1.8 4.949 1.909 9.296 6.4 9.296 0.036 0 0.176 0 0.352-0.036h0.496c2.333-0.284 4.737-1.767 7.176-4.421 2.437 2.651 4.844 4.137 7.173 4.421h0.496c0.176 0.036 0.317 0.036 0.352 0.036 4.491 0.004 8.2-4.347 6.4-9.296z"></path>
</symbol>
<symbol id="icon-heart" viewBox="0 0 32 32">
<path d="M26 9.312c0-4.391-2.969-5.313-5.469-5.313-2.328 0-4.953 2.516-5.766 3.484-0.375 0.453-1.156 0.453-1.531 0-0.812-0.969-3.437-3.484-5.766-3.484-2.5 0-5.469 0.922-5.469 5.313 0 2.859 2.891 5.516 2.922 5.547l9.078 8.75 9.063-8.734c0.047-0.047 2.938-2.703 2.938-5.563zM28 9.312c0 3.75-3.437 6.891-3.578 7.031l-9.734 9.375c-0.187 0.187-0.438 0.281-0.688 0.281s-0.5-0.094-0.688-0.281l-9.75-9.406c-0.125-0.109-3.563-3.25-3.563-7 0-4.578 2.797-7.313 7.469-7.313 2.734 0 5.297 2.156 6.531 3.375 1.234-1.219 3.797-3.375 6.531-3.375 4.672 0 7.469 2.734 7.469 7.313z"></path>
</symbol>
<symbol id="icon-search" viewBox="0 0 32 32">
<path d="M12.9 14.32c-1.34 1.049-3.050 1.682-4.908 1.682-4.418 0-8-3.582-8-8s3.582-8 8-8c4.418 0 8 3.582 8 8 0 1.858-0.633 3.567-1.695 4.925l0.013-0.018 5.35 5.33-1.42 1.42-5.33-5.34zM8 14c3.314 0 6-2.686 6-6s-2.686-6-6-6v0c-3.314 0-6 2.686-6 6s2.686 6 6 6v0z"></path>
</symbol>
<symbol id="icon-user" viewBox="0 0 32 32">
<path d="M14 0c7.734 0 14 6.266 14 14 0 7.688-6.234 14-14 14-7.75 0-14-6.297-14-14 0-7.734 6.266-14 14-14zM23.672 21.109c1.453-2 2.328-4.453 2.328-7.109 0-6.609-5.391-12-12-12s-12 5.391-12 12c0 2.656 0.875 5.109 2.328 7.109 0.562-2.797 1.922-5.109 4.781-5.109 1.266 1.234 2.984 2 4.891 2s3.625-0.766 4.891-2c2.859 0 4.219 2.312 4.781 5.109zM20 11c0-3.313-2.688-6-6-6s-6 2.688-6 6 2.688 6 6 6 6-2.688 6-6z"></path>
</symbol>
</defs>
</svg>
